<svg width="22" height="21" viewBox="0 0 22 21" fill="none" xmlns="http://www.w3.org/2000/svg">
<path d="M2.58754 8.41484H2.7542C8.25269 8.41484 13.7512 8.41484 19.2497 8.41484C19.3652 8.41484 19.423 8.47563 19.4232 8.5972C19.4232 12.3395 19.4232 16.0816 19.4232 19.8239C19.4232 20.0669 19.4279 20.0716 19.6689 20.0716C20.3752 20.0716 21.0813 20.0716 21.7876 20.0716C21.9807 20.0716 21.9975 20.0542 21.9975 19.8578C21.9975 15.3769 21.9967 10.8963 22 6.41571C22 6.2069 21.9187 6.07413 21.7397 5.97358C18.2497 4.01137 14.7605 2.04723 11.273 0.0800608C11.0848 -0.0262726 10.9204 -0.0268236 10.7325 0.0792344C7.245 2.04613 3.75583 4.01054 0.265835 5.97248C0.0818176 6.07605 0 6.21489 0 6.42728C0.00275421 10.8988 0.0022049 15.37 0.0022049 19.8415C0.0022049 20.0539 0.0187321 20.071 0.226715 20.071C0.937441 20.071 1.64844 20.071 2.35917 20.071C2.5644 20.071 2.58754 20.0482 2.58754 19.8424C2.58754 16.1 2.58754 12.358 2.58754 8.61566C2.58754 8.55643 2.58754 8.4972 2.58754 8.41429V8.41484Z" fill="#167FFE"/>
<path d="M14.3398 18.2514C14.3398 18.7098 14.3392 19.1682 14.3398 19.6269C14.3403 19.9142 14.4946 20.0712 14.7794 20.0715C15.7056 20.0723 16.6314 20.0723 17.5576 20.0715C17.8333 20.0715 17.9928 19.9125 17.9931 19.6351C17.9945 18.709 17.9945 17.7831 17.9931 16.857C17.9928 16.5804 17.8331 16.4187 17.5587 16.4181C16.6281 16.4168 15.6976 16.4165 14.7667 16.4181C14.4998 16.4187 14.3403 16.5815 14.3398 16.8487C14.3384 17.3162 14.3395 17.7839 14.3395 18.2517L14.3398 18.2514Z" fill="#167FFE"/>
<path d="M12.8278 18.2437C12.8278 17.7806 12.8287 17.3178 12.8276 16.8547C12.827 16.5779 12.67 16.4181 12.394 16.4175C11.4681 16.4162 10.5422 16.4162 9.61606 16.4175C9.33701 16.4178 9.17833 16.5735 9.17778 16.8503C9.17613 17.7809 9.17613 18.7114 9.17778 19.642C9.17833 19.9139 9.33563 20.0703 9.60477 20.0709C10.5353 20.072 11.4659 20.072 12.3962 20.0709C12.6714 20.0706 12.8267 19.9119 12.8273 19.6326C12.8281 19.1695 12.8273 18.7067 12.8273 18.2437H12.8278Z" fill="#167FFE"/>
<path d="M11.0003 11.1546C10.5375 11.1546 10.0744 11.154 9.61161 11.1546C9.32925 11.1551 9.17856 11.3025 9.17801 11.5868C9.17636 12.5127 9.17636 13.4386 9.17801 14.3642C9.17856 14.6482 9.32787 14.798 9.60996 14.7983C10.5402 14.7997 11.4708 14.7997 12.4011 14.7983C12.6752 14.7978 12.8272 14.6451 12.8275 14.3727C12.8283 13.4424 12.8283 12.5119 12.8275 11.5816C12.8275 11.3089 12.6738 11.1554 12.4027 11.1549C11.9352 11.1538 11.4678 11.1546 11.0003 11.1546Z" fill="#167FFE"/>
<path d="M16.1679 11.1547C15.7004 11.1547 15.2329 11.1538 14.7652 11.1549C14.4944 11.1555 14.3401 11.3103 14.3399 11.5819C14.339 12.5125 14.339 13.443 14.3399 14.3736C14.3401 14.6444 14.4941 14.7981 14.7679 14.7984C15.6985 14.7998 16.6291 14.7998 17.5593 14.7984C17.8392 14.7981 17.9929 14.6438 17.9932 14.3639C17.9943 13.4381 17.9946 12.5119 17.9932 11.5861C17.9927 11.3073 17.837 11.1552 17.5569 11.1547C17.0938 11.1538 16.631 11.1547 16.1679 11.1547Z" fill="#167FFE"/>
<path d="M7.66181 18.2315C7.66181 17.7731 7.66264 17.3147 7.66154 16.8563C7.66071 16.5698 7.50727 16.4175 7.21775 16.4172C6.29656 16.4164 5.37509 16.4161 4.4539 16.4172C4.16796 16.4175 4.01672 16.5731 4.01645 16.8621C4.01617 17.7833 4.0159 18.7048 4.01645 19.626C4.01645 19.9224 4.16658 20.0706 4.46685 20.0706C5.37895 20.0709 6.29105 20.0709 7.20315 20.0706C7.51691 20.0706 7.66126 19.924 7.66154 19.6061C7.66209 19.1477 7.66154 18.6893 7.66154 18.231L7.66181 18.2315Z" fill="#167FFE"/>
<path d="M5.83671 11.1545C5.37391 11.1545 4.91083 11.154 4.44803 11.1545C4.1654 11.1551 4.01636 11.3036 4.01636 11.5859C4.01581 12.5118 4.01581 13.4377 4.01636 14.3633C4.01636 14.6473 4.16319 14.7977 4.44473 14.7983C5.37501 14.7994 6.30556 14.7996 7.23584 14.7983C7.51049 14.798 7.6609 14.6473 7.66118 14.3735C7.66255 13.4432 7.66228 12.5126 7.66118 11.5824C7.6609 11.3003 7.51104 11.1551 7.22565 11.1545C6.76285 11.154 6.29978 11.1545 5.83698 11.1545H5.83671Z" fill="#167FFE"/>
</svg>
