<svg width="200" height="36" viewBox="0 0 200 36" fill="none" xmlns="http://www.w3.org/2000/svg">
<path d="M18.3594 17.8901L2.8685 8.94629L0 10.6125L18.3594 21.2124L36.6009 10.6125L33.7324 8.95654L18.3594 17.8901Z" fill="#167FFE"/>
<path d="M10.6663 16.7673L23.1965 9.4846L20.328 7.82861L7.79785 15.1114L10.6663 16.7673Z" fill="#167FFE"/>
<path d="M18.3594 3.32223L2.8685 12.2661L0 10.5998L18.3594 0L36.6009 10.5998L33.7324 12.2558L18.3594 3.32223Z" fill="#167FFE"/>
<path d="M18.3594 25.3447L0 15.0781V18.0671L18.3594 28.6669L36.6009 18.0671V15.0781L18.3594 25.3447Z" fill="#167FFE"/>
<path d="M18.3594 32.1381L0 21.874V24.8604L18.3594 35.4603L36.6009 24.8604V21.874L18.3594 32.1381Z" fill="#167FFE"/>
<path d="M58.9569 27.1885V10.8747H50.9128V27.1885H47.7393V8.00879H62.1868V27.1885H58.9569Z" fill="white"/>
<path d="M79.1804 20.9795C79.1804 21.9818 78.9958 22.8815 78.6241 23.6788C78.2524 24.476 77.7397 25.1502 77.0809 25.6962C76.4221 26.2448 75.6556 26.66 74.7738 26.9497C73.8945 27.2368 72.9538 27.3804 71.954 27.3804C70.9543 27.3804 69.9853 27.2368 69.106 26.9497C68.2268 26.6626 67.4654 26.2448 66.8271 25.6962C66.1888 25.1502 65.6838 24.476 65.3121 23.6788C64.9404 22.8815 64.7559 21.9818 64.7559 20.9795V14.1581C64.7559 13.1558 64.9456 12.2663 65.3249 11.4845C65.7043 10.7052 66.2196 10.0412 66.8681 9.49522C67.5167 8.94921 68.2755 8.53136 69.147 8.24169C70.0186 7.95459 70.9543 7.81104 71.954 7.81104C72.9538 7.81104 73.8663 7.95971 74.7456 8.25707C75.6249 8.55443 76.3939 8.9774 77.0527 9.52342C77.7115 10.072 78.2293 10.7385 78.6087 11.528C78.9881 12.3176 79.1778 13.2122 79.1778 14.2145V20.9795H79.1804ZM76.0068 14.6888C76.0068 14.0018 75.894 13.407 75.671 12.9072C75.448 12.4073 75.1506 11.9946 74.7764 11.669C74.4047 11.3435 73.9714 11.1076 73.4767 10.9589C72.982 10.8103 72.4744 10.7359 71.954 10.7359C71.4336 10.7359 70.9004 10.8103 70.4159 10.9589C69.9315 11.1076 69.5085 11.3435 69.1445 11.669C68.7805 11.9946 68.4882 12.4073 68.2652 12.9072C68.0422 13.407 67.9294 14.0018 67.9294 14.6888V20.5078C67.9294 21.2127 68.0396 21.8151 68.2652 22.3176C68.4908 22.82 68.7856 23.2276 69.1599 23.5429C69.5316 23.8582 69.9597 24.0915 70.4441 24.2376C70.9286 24.3863 71.4311 24.4606 71.954 24.4606C72.477 24.4606 72.982 24.3863 73.4767 24.2376C73.9689 24.0889 74.4021 23.8582 74.7764 23.5429C75.1481 23.2276 75.4454 22.82 75.671 22.3176C75.894 21.8177 76.0068 21.2127 76.0068 20.5078V14.6888Z" fill="white"/>
<path d="M104.584 10.8744V27.1881H101.41V10.8744H96.0938V8.00586H109.875V10.8744H104.586H104.584Z" fill="white"/>
<path d="M120.441 23.1946H113.287L111.923 27.3423H108.555L115.263 8.1626H118.493L125.202 27.3423H121.749L120.441 23.1946ZM114.205 20.4389H119.521L118.38 16.8476L116.904 11.977H116.794L115.373 16.6527L114.205 20.4389Z" fill="white"/>
<path d="M140.929 21.692C140.929 22.4149 140.813 23.1172 140.58 23.794C140.347 24.4707 140.001 25.0757 139.537 25.6038C139.073 26.1319 138.496 26.5548 137.812 26.8701C137.125 27.1854 136.335 27.3444 135.446 27.3444H126.814V8.16211H135.11C136.02 8.16211 136.822 8.30054 137.517 8.57995C138.212 8.8568 138.788 9.23363 139.242 9.70787C139.696 10.1821 140.039 10.723 140.273 11.3357C140.503 11.9483 140.621 12.5969 140.621 13.2839C140.621 14.0273 140.434 14.763 140.065 15.4961C139.693 16.2293 139.091 16.8291 138.255 17.2931C139.183 17.7571 139.86 18.4031 140.288 19.2285C140.713 20.0539 140.929 20.8768 140.929 21.692ZM137.394 13.5069C137.394 12.6533 137.127 12.0278 136.597 11.6279C136.066 11.228 135.325 11.0306 134.374 11.0306H129.988V15.9575H134.515C135.353 15.9575 136.043 15.7448 136.584 15.3167C137.125 14.8912 137.394 14.2862 137.394 13.5069ZM137.645 21.6228C137.645 20.7358 137.343 20.0334 136.74 19.5182C136.138 19.0004 135.417 18.7414 134.582 18.7414H129.988V24.4759H134.61C135.612 24.4759 136.368 24.2221 136.879 23.7145C137.389 23.207 137.645 22.5097 137.645 21.6228Z" fill="white"/>
<path d="M155.724 24.4759H161.792V8.16211H165.022V24.4759H166.608V30.1642H163.658V27.3418H143.307V8.16211H146.48V24.4759H152.55V8.16211H155.724V24.4759Z" fill="white"/>
<path d="M179.831 13.6453C179.459 14.258 172.064 25.7371 171.73 26.2549C171.397 26.7753 171.164 27.1367 171.036 27.3418H168.113V8.16211H171.287V21.8022H171.425L180.195 8.16211H183.174V27.3418H180V13.6453H179.833H179.831Z" fill="white"/>
<path d="M185.745 27.3419V8.16223H188.919V16.1525H191.395C191.728 16.1525 192.059 16.1192 192.384 16.0551C192.71 15.991 193.02 15.8654 193.318 15.6783C193.615 15.4937 193.889 15.2297 194.138 14.8836C194.389 14.5401 194.607 14.0889 194.792 13.5326L196.517 8.15967H199.662L197.937 13.7557C197.64 14.7016 197.26 15.4911 196.796 16.1217C196.332 16.7523 195.804 17.1702 195.209 17.3753C196.007 17.6342 196.629 18.0956 197.076 18.7544C197.522 19.4132 197.883 20.2156 198.162 21.1615L200 27.3419H196.604L194.989 21.6895C194.822 21.1153 194.617 20.6462 194.376 20.2848C194.135 19.9233 193.866 19.6413 193.569 19.4363C193.271 19.2312 192.951 19.0979 192.607 19.0338C192.264 18.9697 191.908 18.9364 191.536 18.9364H188.919V27.3445H185.745V27.3419Z" fill="white"/>
<path d="M84.9968 12.879C85.2275 12.3791 85.53 11.9689 85.9017 11.6536C86.2734 11.3383 86.6989 11.1179 87.168 10.9589C87.8473 10.7257 94.1688 10.8744 94.1688 10.8744V8.00586C94.1688 8.00586 89.2316 7.81104 88.5446 7.81104C87.9319 7.81104 87.3346 7.88025 86.7476 8.00586H86.7322C86.4528 8.06994 86.1734 8.13916 85.9017 8.22888C85.0481 8.50829 84.2944 8.91075 83.6407 9.43882C82.987 9.96689 82.4641 10.618 82.0668 11.387C81.672 12.1561 81.4746 13.043 81.4746 14.0453V21.1435C81.4746 22.1458 81.672 23.0379 82.0668 23.8172C82.4615 24.5965 82.987 25.2502 83.6407 25.7808C84.2944 26.3089 85.0481 26.7088 85.9017 26.9779C86.7553 27.2471 87.6448 27.3829 88.5754 27.3829C88.7625 27.3829 94.1714 27.3624 94.1714 27.3624V24.4606H88.5754C88.1114 24.4606 87.6474 24.3863 87.1834 24.2376C86.7194 24.0889 86.2965 23.8582 85.9171 23.5429C85.5377 23.2276 85.2301 22.82 84.9993 22.3176C84.7661 21.8177 84.6507 21.2127 84.6507 20.5078V14.6888C84.6507 13.9838 84.7661 13.3814 84.9993 12.879H84.9968Z" fill="white"/>
</svg>
