<svg width="187" height="30" viewBox="0 0 187 30" fill="none" xmlns="http://www.w3.org/2000/svg">
<path d="M84.0253 14.404C84.0253 14.3485 84.0202 14.2929 84.0202 14.2323C83.9192 10.404 82.3434 6.82828 79.5859 4.15152C76.8232 1.47475 73.1717 0 69.3081 0C61.404 0 54.9545 6.12626 54.6263 13.9394C54.5909 14.1414 54.5909 14.3737 54.5909 14.5808C54.5909 17.2121 55.3182 19.8131 56.6869 22.096L54.0455 29.8636L54 30L62.2323 27.3939C64.3889 28.5657 66.8333 29.1818 69.3081 29.1818C77.4293 29.1818 84.0354 22.6313 84.0354 14.5808C84.0354 14.5152 84.0354 14.4545 84.0253 14.399V14.404ZM76.5707 19.6414C76.2424 20.5505 74.7172 21.3384 74.0808 21.3889C73.9748 21.399 73.8838 21.4192 73.7879 21.4394C73.6465 21.4747 73.5 21.5051 73.2778 21.5051C72.7677 21.5051 71.8636 21.3182 69.7273 20.4899C67.5202 19.6313 65.3535 17.7475 63.6313 15.1919C63.601 15.1465 63.5758 15.1111 63.5657 15.096C63.5505 15.0707 63.5202 15.0354 63.4899 14.9848C63.2424 14.6414 62.5909 13.7222 62.2929 12.596C62.1566 12.197 62.0808 11.7778 62.0808 11.3788C62.0808 9.63636 62.9596 8.76768 63.3384 8.39394L63.3838 8.35354C63.7222 7.9596 64.1162 7.87879 64.3889 7.87879C64.5152 7.87879 64.6364 7.88889 64.7525 7.89394C64.8636 7.90404 64.9748 7.90909 65.0859 7.90909C65.1061 7.90909 65.1313 7.90909 65.1566 7.90909C65.3586 7.89394 65.6717 7.86869 65.9444 8.55556C66.2475 9.23737 66.9596 10.9747 67.0404 11.202C67.1414 11.3535 67.2273 11.5909 67.0707 11.8838L67.0202 11.9848C66.9646 12.096 66.9192 12.197 66.8384 12.3131C66.803 12.3838 66.7475 12.4394 66.702 12.4848C66.5051 12.7374 66.3232 12.9596 66.1465 13.1061L66.1313 13.1212C65.9646 13.3182 65.8535 13.4444 66.0202 13.7727C66.096 13.9091 66.8232 15.1515 68.0101 16.1919C69.1768 17.2475 70.197 17.6717 70.6869 17.8737C70.7677 17.9091 70.8333 17.9343 70.8889 17.9596C71.2121 18.1162 71.3788 18.0909 71.5606 17.8687C71.7424 17.6717 72.4545 16.8636 72.6869 16.5C72.9495 16.096 73.2172 16.1717 73.5505 16.2626L73.596 16.2727C73.8384 16.3687 74.7828 16.8333 75.4747 17.1768C75.7323 17.303 75.9444 17.4091 76.0505 17.4596C76.4293 17.6313 76.6667 17.7424 76.7576 17.8737C76.8737 18.0657 76.8687 18.798 76.5707 19.6414Z" fill="#167FFE"/>
<path d="M120.556 0.504883C112.515 0.504883 106 7.02004 106 15.0604C106 23.1008 112.515 29.616 120.556 29.616C128.596 29.616 135.111 23.1008 135.111 15.0604C135.111 7.02004 128.596 0.504883 120.556 0.504883ZM130.192 20.9342C130.051 20.9897 129.899 20.9998 129.747 20.9998C129.02 20.9998 128.293 20.9998 127.566 20.9998C127.263 20.9998 126.99 20.9039 126.768 20.6968C126.545 20.4897 126.333 20.2726 126.126 20.0453C125.626 19.4998 125.136 18.9493 124.586 18.4594C124.268 18.1766 123.944 17.9039 123.581 17.6918C123.434 17.6059 123.278 17.5402 123.126 17.4796C122.965 17.414 122.793 17.419 122.626 17.4392C122.455 17.4594 122.328 17.5503 122.293 17.7322C122.268 17.8584 122.247 17.9847 122.247 18.1109C122.247 18.7776 122.247 19.4493 122.247 20.116C122.247 20.217 122.237 20.318 122.222 20.414C122.192 20.5958 122.086 20.7322 121.919 20.8079C121.798 20.8635 121.672 20.8988 121.545 20.9291C121.217 20.9998 120.884 20.9948 120.556 20.9897C119.394 20.9645 118.323 20.616 117.313 20.0503C116.212 19.4342 115.283 18.6109 114.495 17.6261C113.848 16.813 113.283 15.9443 112.747 15.0554C112.096 13.9645 111.52 12.8382 111.071 11.6463C110.879 11.1412 110.707 10.6261 110.606 10.0958C110.581 9.95943 110.561 9.81802 110.561 9.6766C110.561 9.36852 110.727 9.1867 111.03 9.1362C111.126 9.12105 111.222 9.11094 111.313 9.11094C112.035 9.11094 112.758 9.11094 113.485 9.11094C113.581 9.11094 113.677 9.12105 113.768 9.14125C113.965 9.1766 114.126 9.28266 114.227 9.45438C114.313 9.60084 114.389 9.75236 114.444 9.90892C114.737 10.7524 115.076 11.5756 115.47 12.3736C115.874 13.2019 116.323 13.9998 116.869 14.7423C117.071 15.02 117.288 15.2827 117.54 15.5099C117.626 15.5857 117.722 15.6564 117.823 15.7221C117.884 15.7574 117.955 15.7877 118.025 15.7978C118.247 15.8382 118.389 15.7524 118.439 15.5301C118.47 15.3938 118.49 15.2524 118.49 15.1109C118.49 13.9948 118.5 12.8837 118.49 11.7675C118.485 11.2019 118.328 10.6817 117.965 10.2372C117.889 10.1412 117.808 10.0453 117.737 9.94428C117.621 9.77761 117.576 9.59579 117.672 9.40387C117.773 9.2069 117.944 9.12105 118.162 9.10589C118.187 9.10589 118.217 9.10589 118.242 9.10589C119.348 9.10589 120.455 9.10589 121.561 9.10589C121.641 9.10589 121.722 9.116 121.803 9.1261C121.995 9.1564 122.131 9.27256 122.177 9.45943C122.212 9.60084 122.232 9.75236 122.237 9.90387C122.242 10.616 122.237 11.3231 122.237 12.0352C122.237 12.7726 122.237 13.5099 122.237 14.2473C122.237 14.3786 122.263 14.5099 122.303 14.6311C122.379 14.8534 122.535 14.9241 122.758 14.8483C122.874 14.8079 122.985 14.7473 123.081 14.6766C123.343 14.4796 123.576 14.2473 123.788 13.9948C124.424 13.2322 124.955 12.3938 125.429 11.52C125.742 10.9392 126.035 10.3483 126.293 9.74226C126.419 9.44428 126.616 9.22711 126.939 9.1463C127.045 9.12105 127.157 9.10589 127.263 9.10589C127.985 9.10589 128.707 9.10589 129.434 9.10589C129.556 9.10589 129.682 9.12105 129.798 9.1564C130.066 9.23216 130.187 9.43418 130.141 9.7069C130.096 9.99983 129.99 10.2776 129.864 10.5453C129.581 11.1564 129.237 11.7372 128.889 12.313C128.354 13.1867 127.783 14.0352 127.202 14.8736C127.126 14.9847 127.056 15.1059 126.995 15.2271C126.919 15.3786 126.919 15.5402 127.005 15.6867C127.091 15.8281 127.187 15.9695 127.303 16.0907C127.51 16.313 127.732 16.5251 127.944 16.7423C128.702 17.5049 129.409 18.313 130.035 19.1867C130.197 19.414 130.338 19.6513 130.449 19.9089C130.515 20.0604 130.561 20.217 130.556 20.3837C130.556 20.6412 130.424 20.8281 130.187 20.919L130.192 20.9342Z" fill="#167FFE"/>
<path d="M179.253 0H164.283C160.268 0 157 3.26768 157 7.28283V22.2525C157 26.2677 160.268 29.5354 164.283 29.5354H179.253C183.268 29.5354 186.535 26.2677 186.535 22.2525V7.28283C186.535 3.26768 183.268 0 179.253 0ZM171.758 24.4848C166.394 24.4848 162.03 20.1212 162.03 14.7576C162.03 9.39394 166.394 5.0303 171.758 5.0303C177.121 5.0303 181.485 9.39394 181.485 14.7576C181.485 20.1212 177.121 24.4848 171.758 24.4848ZM180.742 7.41919C179.869 7.41919 179.157 6.70707 179.157 5.83333C179.157 4.9596 179.869 4.25253 180.742 4.25253C181.616 4.25253 182.328 4.96465 182.328 5.83333C182.328 6.70202 181.616 7.41919 180.742 7.41919Z" fill="#167FFE"/>
<path fill-rule="evenodd" clip-rule="evenodd" d="M165 14.6869C165 11 167.995 8 171.672 8C175.359 8 178.359 11 178.359 14.6869C178.359 18.3737 175.348 21.3737 171.672 21.3737C167.995 21.3737 165 18.3737 165 14.6869ZM168 14.75C168 12.6824 169.681 11 171.746 11C173.816 11 175.5 12.6824 175.5 14.75C175.5 16.8176 173.81 18.5 171.746 18.5C169.681 18.5 168 16.8176 168 14.75Z" fill="#167FFE"/>
<path d="M17.0685 22.7763C16.1948 23.6248 15.3413 24.4683 14.4726 25.3016C13.9877 25.7662 13.4928 26.2258 12.9726 26.6602C12.7807 26.8218 12.5231 26.9582 12.2756 26.9986C11.6796 27.1046 11.3261 26.9329 11.0988 26.3723C10.7503 25.5036 10.4574 24.6147 10.1594 23.7258C9.48267 21.6753 8.816 19.6248 8.15944 17.5693C8.08873 17.3471 7.97257 17.241 7.7554 17.1753C5.46752 16.4683 3.18974 15.7561 0.906912 15.039C0.432164 14.8925 0.0887298 14.6097 0.0129722 14.0996C-0.0627853 13.5642 0.199841 13.1804 0.629134 12.8976C0.750346 12.8168 0.881659 12.7511 1.01802 12.6955C1.58368 12.4784 2.14934 12.2713 2.71499 12.0592C11.4271 8.7612 20.1443 5.45817 28.8564 2.16019C29.2857 1.99857 29.715 1.82685 30.1443 1.67029C30.2705 1.62483 30.4019 1.57938 30.5382 1.55413C31.4776 1.36726 32.1392 1.86221 32.0938 2.8218C32.0584 3.56423 31.8867 4.30665 31.7402 5.04403C30.811 9.68039 29.8716 14.3117 28.9322 18.943C28.3867 21.645 27.8514 24.342 27.2807 27.039C27.1948 27.4481 27.0029 27.8521 26.7756 28.2056C26.513 28.6198 26.0584 28.7814 25.5938 28.6652C25.1746 28.5642 24.7352 28.4178 24.3918 28.1703C21.9473 26.3976 19.5281 24.5945 17.0685 22.7763ZM11.9877 25.145C11.9877 25.145 12.0281 25.145 12.0483 25.145C12.1039 24.6804 12.1594 24.2157 12.2099 23.7511C12.3766 22.3067 12.5332 20.8572 12.7099 19.4127C12.7251 19.2763 12.816 19.1198 12.917 19.0238C13.2958 18.6602 13.6948 18.3117 14.0887 17.9582C18.1291 14.3218 22.1695 10.6854 26.2099 7.04908C26.3211 6.94807 26.4221 6.8117 26.4726 6.67534C26.5685 6.40261 26.3817 6.19554 26.0988 6.26625C25.9322 6.30665 25.7706 6.38746 25.6241 6.47837C20.2352 9.85716 14.8514 13.2359 9.46247 16.6147C9.30085 16.7157 9.26045 16.7966 9.32105 16.9885C9.68974 18.0794 10.0382 19.1804 10.3968 20.2713C10.9271 21.8925 11.4574 23.5188 11.9877 25.14V25.145Z" fill="#167FFE"/>
</svg>
