<svg width="200" height="36" viewBox="0 0 200 36" fill="none" xmlns="http://www.w3.org/2000/svg">
<path d="M18.3594 17.8903L2.86849 8.94641L0 10.6126L18.3594 21.2125L36.6008 10.6126L33.7324 8.95666L18.3594 17.8903Z" fill="#287FE8"/>
<path d="M10.6654 16.7675L23.1955 9.48474L20.327 7.82875L7.79688 15.1115L10.6654 16.7675Z" fill="#287FE8"/>
<path d="M18.3594 3.32222L2.86849 12.2661L0 10.5998L18.3594 0L36.6008 10.5998L33.7324 12.2558L18.3594 3.32222Z" fill="#287FE8"/>
<path d="M18.3594 25.3448L0 15.0782V18.0671L18.3594 28.667L36.6008 18.0671V15.0782L18.3594 25.3448Z" fill="#185EB2"/>
<path d="M18.3594 32.1379L0 21.8739V24.8603L18.3594 35.4601L36.6008 24.8603V21.8739L18.3594 32.1379Z" fill="#10498D"/>
<path d="M58.9559 27.1879V10.8742H50.9118V27.1879H47.7383V8.00826H62.1858V27.1879H58.9559Z" fill="#1E2126"/>
<path d="M79.1784 20.9793C79.1784 21.9816 78.9938 22.8814 78.6221 23.6786C78.2504 24.4758 77.7377 25.15 77.0789 25.696C76.4201 26.2446 75.6537 26.6599 74.7718 26.9496C73.8926 27.2367 72.9518 27.3802 71.9521 27.3802C70.9523 27.3802 69.9833 27.2367 69.1041 26.9496C68.2248 26.6624 67.4635 26.2446 66.8252 25.696C66.1869 25.15 65.6819 24.4758 65.3102 23.6786C64.9385 22.8814 64.7539 21.9816 64.7539 20.9793V14.158C64.7539 13.1557 64.9436 12.2661 65.323 11.4843C65.7024 10.705 66.2176 10.0411 66.8662 9.49507C67.5147 8.94905 68.2735 8.53121 69.1451 8.24154C70.0167 7.95444 70.9523 7.81088 71.9521 7.81088C72.9518 7.81088 73.8644 7.95956 74.7436 8.25692C75.6229 8.55428 76.3919 8.97725 77.0507 9.52326C77.7095 10.0718 78.2274 10.7383 78.6068 11.5279C78.9861 12.3174 79.1758 13.2121 79.1758 14.2144V20.9793H79.1784ZM76.0049 14.6886C76.0049 14.0016 75.8921 13.4069 75.6691 12.907C75.446 12.4071 75.1487 11.9944 74.7744 11.6689C74.4027 11.3433 73.9695 11.1075 73.4747 10.9588C72.98 10.8101 72.4724 10.7358 71.9521 10.7358C71.4317 10.7358 70.8985 10.8101 70.414 10.9588C69.9295 11.1075 69.5065 11.3433 69.1425 11.6689C68.7785 11.9944 68.4863 12.4071 68.2633 12.907C68.0402 13.4069 67.9274 14.0016 67.9274 14.6886V20.5076C67.9274 21.2126 68.0377 21.815 68.2633 22.3174C68.4888 22.8198 68.7836 23.2274 69.1579 23.5427C69.5296 23.858 69.9577 24.0913 70.4422 24.2374C70.9267 24.3861 71.4291 24.4604 71.9521 24.4604C72.475 24.4604 72.98 24.3861 73.4747 24.2374C73.9669 24.0888 74.4001 23.858 74.7744 23.5427C75.1461 23.2274 75.4435 22.8198 75.6691 22.3174C75.8921 21.8175 76.0049 21.2126 76.0049 20.5076V14.6886Z" fill="#1E2126"/>
<path d="M104.582 10.8742V27.1879H101.408V10.8742H96.0918V8.00569H109.873V10.8742H104.584H104.582Z" fill="#1E2126"/>
<path d="M120.439 23.1941H113.285L111.921 27.3417H108.553L115.261 8.16205H118.491L125.2 27.3417H121.747L120.439 23.1941ZM114.203 20.4384H119.519L118.378 16.847L116.902 11.9765H116.792L115.371 16.6522L114.203 20.4384Z" fill="#1E2126"/>
<path d="M140.927 21.6919C140.927 22.4148 140.811 23.1172 140.578 23.7939C140.345 24.4707 139.999 25.0756 139.535 25.6037C139.071 26.1318 138.494 26.5548 137.81 26.8701C137.123 27.1854 136.333 27.3443 135.444 27.3443H126.812V8.16205H135.108C136.018 8.16205 136.82 8.30047 137.515 8.57989C138.21 8.85674 138.786 9.23357 139.24 9.7078C139.694 10.182 140.037 10.7229 140.271 11.3356C140.501 11.9483 140.619 12.5968 140.619 13.2838C140.619 14.0272 140.432 14.7629 140.063 15.4961C139.691 16.2292 139.089 16.8291 138.253 17.293C139.181 17.757 139.858 18.403 140.286 19.2284C140.711 20.0539 140.927 20.8767 140.927 21.6919ZM137.392 13.5068C137.392 12.6532 137.125 12.0277 136.595 11.6278C136.064 11.2279 135.323 11.0305 134.372 11.0305H129.986V15.9575H134.513C135.351 15.9575 136.041 15.7447 136.582 15.3166C137.123 14.8911 137.392 14.2861 137.392 13.5068ZM137.643 21.6227C137.643 20.7357 137.341 20.0334 136.738 19.5181C136.136 19.0003 135.415 18.7414 134.58 18.7414H129.986V24.4758H134.608C135.61 24.4758 136.366 24.222 136.877 23.7145C137.387 23.2069 137.643 22.5096 137.643 21.6227Z" fill="#1E2126"/>
<path d="M155.722 24.4758H161.79V8.16205H165.02V24.4758H166.606V30.1641H163.656V27.3417H143.305V8.16205H146.478V24.4758H152.548V8.16205H155.722V24.4758Z" fill="#1E2126"/>
<path d="M179.829 13.6453C179.457 14.2579 172.062 25.737 171.728 26.2548C171.395 26.7752 171.162 27.1367 171.034 27.3417H168.111V8.16205H171.285V21.8021H171.423L180.193 8.16205H183.172V27.3417H179.998V13.6453H179.831H179.829Z" fill="#1E2126"/>
<path d="M185.742 27.3417V8.16205H188.916V16.1523H191.392C191.725 16.1523 192.056 16.119 192.381 16.0549C192.707 15.9908 193.017 15.8652 193.315 15.6781C193.612 15.4935 193.886 15.2295 194.135 14.8834C194.386 14.5399 194.604 14.0887 194.789 13.5325L196.514 8.15948H199.659L197.934 13.7555C197.637 14.7014 197.257 15.4909 196.793 16.1215C196.329 16.7521 195.801 17.17 195.206 17.3751C196.004 17.634 196.627 18.0954 197.073 18.7542C197.519 19.413 197.88 20.2154 198.16 21.1613L199.997 27.3417H196.601L194.986 21.6893C194.819 21.1151 194.614 20.646 194.373 20.2846C194.132 19.9231 193.863 19.6411 193.566 19.4361C193.268 19.231 192.948 19.0977 192.605 19.0336C192.261 18.9695 191.905 18.9362 191.533 18.9362H188.916V27.3443H185.742V27.3417Z" fill="#1E2126"/>
<path d="M84.9948 12.8788C85.2255 12.3789 85.528 11.9688 85.8997 11.6535C86.2714 11.3382 86.697 11.1177 87.1661 10.9588C87.8454 10.7255 94.1668 10.8742 94.1668 10.8742V8.0057C94.1668 8.0057 89.2296 7.81088 88.5426 7.81088C87.93 7.81088 87.3327 7.8801 86.7457 8.0057H86.7303C86.4509 8.06979 86.1715 8.139 85.8997 8.22872C85.0461 8.50814 84.2924 8.9106 83.6388 9.43867C82.9851 9.96674 82.4622 10.6179 82.0648 11.3869C81.67 12.1559 81.4727 13.0429 81.4727 14.0452V21.1434C81.4727 22.1457 81.67 23.0377 82.0648 23.817C82.4596 24.5963 82.9851 25.25 83.6388 25.7806C84.2924 26.3087 85.0461 26.7086 85.8997 26.9778C86.7534 27.2469 87.6429 27.3828 88.5734 27.3828C88.7605 27.3828 94.1694 27.3623 94.1694 27.3623V24.4604H88.5734C88.1094 24.4604 87.6454 24.3861 87.1815 24.2374C86.7175 24.0888 86.2945 23.858 85.9151 23.5427C85.5357 23.2274 85.2281 22.8198 84.9974 22.3174C84.7641 21.8175 84.6488 21.2126 84.6488 20.5076V14.6886C84.6488 13.9837 84.7641 13.3812 84.9974 12.8788H84.9948Z" fill="#1E2126"/>
</svg>
