<svg width="20" height="19" viewBox="0 0 20 19" fill="none" xmlns="http://www.w3.org/2000/svg">
<path d="M1.91264 9.85346C1.96065 9.91887 1.99266 9.96793 2.01667 10.0088C2.03268 10.0333 2.06469 10.0742 2.1047 10.1396C4.44148 13.68 7.37846 16.2883 10.3715 17.4821C13.2604 18.6268 14.4928 18.8885 15.1811 18.8885C15.4772 18.8885 15.6852 18.8394 15.8773 18.7903C16.0053 18.7576 16.1254 18.7331 16.2774 18.7167C17.1417 18.6513 19.2144 17.5557 19.6546 16.2965C20.0547 15.1355 20.0627 14.1134 19.9026 13.8518C19.7746 13.6719 19.4545 13.5165 18.9423 13.2794C18.7983 13.214 18.5102 13.0668 18.1661 12.8869C17.2297 12.4127 15.9493 11.7668 15.6132 11.6359L15.5492 11.6196C15.101 11.4888 14.7329 11.3906 14.3808 11.9466C14.0687 12.4536 13.1004 13.5656 12.8523 13.8436C12.6042 14.1543 12.3801 14.187 11.94 13.9744C11.868 13.9417 11.7719 13.9008 11.6679 13.8518C11.0037 13.5738 9.61921 12.985 8.03468 11.5215C6.42614 10.0742 5.44181 8.34899 5.33778 8.16911C5.11371 7.71123 5.26576 7.53952 5.48983 7.26152L5.50584 7.23699C5.74592 7.04076 5.994 6.72187 6.25809 6.37846C6.32211 6.31305 6.40213 6.23946 6.44215 6.14135C6.54618 5.97782 6.6102 5.84699 6.69023 5.69164L6.75425 5.55264C6.97032 5.14382 6.85028 4.81676 6.71424 4.60417C6.6022 4.28529 5.63388 1.88141 5.22574 0.932938C4.86562 -0.0155312 4.44148 0.0171747 4.16939 0.041704C4.13738 0.041704 4.10537 0.041704 4.07336 0.041704C3.92131 0.041704 3.77726 0.0335276 3.62521 0.0171747C3.46516 0.00899819 3.3051 -0.00735474 3.12904 -0.00735474C2.76092 -0.00735474 2.22474 0.107116 1.76059 0.646762L1.70457 0.703997C1.1924 1.23547 0 2.44558 0 4.85764C0 5.40546 0.104035 5.99417 0.288096 6.54199C0.696232 8.1037 1.57653 9.37105 1.91264 9.85346Z" fill="#0A61DE"/>
</svg>
